PathFileType	4	(X/Y/Z)	/Users/mathieubourgeois/Desktop/Analyse/Traitement/Sujet_07/Data/Transformed_Sujet_07_velo_100.trc
DataRate	CameraRate	NumFrames	NumMarkers	Units	OrigDataRate	OrigDataStartFrame	OrigNumFrames
120.000000	120.000000	5	36	mm	120.000000	932	1864
Frame#	Time	RKNE			RKNI			LKNI			LKNE			LANI			LANE			LTOE			LHEE			RHEE			RTOE			RANE			RANI			RFWT			LFWT			RBWT			LBWT			T10			C7			RSHO			LSHO			LWRA			LWRB			RWRA			RWRB			RCAR			LCAR			LHUM			LRAD			RRAD			RHUM			STRN			RFHD			LFHD			RBHD			LBHD			CLAV			
		X1	Y1	Z1	X2	Y2	Z2	X3	Y3	Z3	X4	Y4	Z4	X5	Y5	Z5	X6	Y6	Z6	X7	Y7	Z7	X8	Y8	Z8	X9	Y9	Z9	X10	Y10	Z10	X11	Y11	Z11	X12	Y12	Z12	X13	Y13	Z13	X14	Y14	Z14	X15	Y15	Z15	X16	Y16	Z16	X17	Y17	Z17	X18	Y18	Z18	X19	Y19	Z19	X20	Y20	Z20	X21	Y21	Z21	X22	Y22	Z22	X23	Y23	Z23	X24	Y24	Z24	X25	Y25	Z25	X26	Y26	Z26	X27	Y27	Z27	X28	Y28	Z28	X29	Y29	Z29	X30	Y30	Z30	X31	Y31	Z31	X32	Y32	Z32	X33	Y33	Z33	X34	Y34	Z34	X35	Y35	Z35	X36	Y36	Z36	

933	7.766666666666667	-13.53520393371585	961.3180541992188	223.8792266845703	-1.649600744247451	903.45166015625	119.3800048828124	-217.9469604492188	675.0988159179688	-31.50580024719245	-197.6708068847656	724.867431640625	-138.9420013427735	-271.8956298828125	293.270263671875	-45.96792602539068	-292.67626953125	283.7832641601562	-133.109359741211	-112.4218444824219	162.5730133056641	-103.1005325317383	-351.4723815917969	284.7505798339844	-94.73516082763678	-308.3900146484375	578.115478515625	164.3121337890624	-60.6201972961426	481.2248229980469	194.2890319824218	-246.033432006836	587.0380859375	206.9709014892578	-219.4928588867188	587.7415161132812	119.5231781005859	-281.957275390625	1227.588623046875	148.9882049560546	-287.023681640625	1207.207641601562	-67.33551788330088	-441.2152404785156	1308.634643554688	95.59574127197251	-440.0120239257812	1296.269409179688	-17.56007194519056	-180.6637725830078	1507.293701171875	36.63286209106434	59.81104278564452	1470.316162109375	75.48330688476555	61.92614746093747	1415.328979492188	215.9683380126952	96.97438049316406	1448.190307617188	-47.11026763916023	316.7568969726562	930.7908325195312	-105.8017654418945	277.1932983398438	887.6629638671875	-156.3733825683594	320.1236267089843	939.9271850585938	254.0916595458984	281.2969970703124	898.4238891601562	303.1775817871094	369.2236022949218	923.1837768554688	343.3118896484375	372.9468688964844	914.8002319335938	-193.3713989257812	101.0455169677735	1127.404418945312	-152.1303405761719	165.7150573730469	1143.245727539062	-160.1669311523438	105.8866729736328	1110.5361328125	304.1386108398437	62.62247085571286	1083.710693359375	257.4846191406249	-128.7751770019531	1272.575927734375	46.6064567565917	265.8344421386719	1349.488891601562	178.1373291015624	281.0552978515625	1332.85498046875	47.34332275390621	201.4391174316406	1487.280151367188	171.9914550781249	213.5846252441406	1485.589721679688	24.95737266540521	40.80216598510741	1336.216918945312	77.10451507568351	
934	7.774999999999999	-12.8266525268555	963.250244140625	224.4947814941406	0.764752030372605	905.130615234375	120.0758361816406	-216.8379364013672	677.0403442382812	-31.68970870971686	-195.9611663818359	726.1468505859375	-139.1261291503907	-284.916259765625	297.406982421875	-45.2791366577149	-305.6516418457031	288.951416015625	-132.7918853759766	-127.7098693847656	164.502197265625	-103.7268295288086	-364.4649658203125	290.9292602539062	-93.97657012939459	-295.340087890625	569.59130859375	165.2231750488281	-45.11063003540041	480.4793090820312	195.6686248779297	-233.4088287353516	580.4881591796875	207.8344726562499	-206.8608551025391	581.9615478515625	120.4787521362304	-281.7770080566406	1228.330200195312	149.1653289794921	-287.20703125	1207.584106445312	-67.19916534423838	-441.0173034667969	1309.093627929688	95.8865585327147	-440.0763854980469	1296.671264648438	-17.27962493896498	-180.2442626953125	1507.589477539062	37.21910476684559	60.10599517822265	1470.317626953125	76.31829833984368	61.91273117065427	1415.247436523438	216.5001525878905	97.48402404785156	1448.41015625	-46.24536514282234	317.029541015625	931.1425170898438	-105.5653686523438	277.2932434082031	887.7482299804688	-156.2515563964844	320.2587890624999	939.836669921875	254.2466583251953	281.4609985351562	898.3264770507812	303.3355712890625	369.4020385742187	923.0703125	343.4134521484375	373.0585327148438	914.7879028320312	-193.2330627441406	101.4757919311524	1127.651123046875	-151.2966918945313	166.1864318847657	1143.499877929688	-159.2222900390625	106.1125183105468	1110.4599609375	304.4913024902343	62.77553558349607	1083.569458007812	257.9090576171874	-128.5958099365234	1272.822143554688	46.94196319580069	266.0869750976562	1349.385131835938	178.7658538818359	281.3191528320312	1333.02392578125	48.00506591796871	201.7001647949218	1487.168334960938	172.9327850341796	213.7542877197266	1485.732177734375	25.88711929321282	41.07672119140624	1336.233032226562	77.72793579101554	
935	7.783333333333333	-12.74539947509768	963.5944213867188	225.1969909667968	2.589504957199082	905.3717651367188	120.9591598510742	-214.1991424560547	679.795654296875	-32.19695281982429	-192.902603149414	728.2621459960938	-139.5847778320313	-296.8974914550781	303.3773193359375	-44.99107360839849	-318.0057067871094	295.7254638671875	-132.4805755615235	-143.0181121826172	167.4211883544922	-104.1622085571289	-376.74462890625	299.4261474609375	-93.74658203125006	-282.53662109375	559.8963623046875	166.0428009033203	-29.54624366760256	477.4286193847656	196.1392059326172	-220.8758697509766	572.6478271484375	208.9212188720703	-194.3540344238282	575.0690307617188	121.6368408203124	-281.6817932128906	1228.883422851562	149.9381713867186	-287.4506530761719	1207.923950195312	-67.03343200683604	-440.8200073242188	1309.5068359375	96.20388793945298	-440.2398376464844	1296.998779296875	-16.97234535217298	-179.9214172363281	1507.84423828125	37.85788726806629	60.31305694580077	1470.247436523438	76.93354797363274	61.87657546997067	1415.171508789062	216.8856506347655	97.953857421875	1448.559326171875	-45.58285903930671	317.2142944335938	931.1053466796875	-105.3746643066406	277.418701171875	887.809814453125	-156.0809783935547	320.3404846191406	939.7674560546875	254.4257507324218	281.5463562011718	898.2393798828125	303.4984130859375	369.5452270507812	922.9053955078125	343.5354309082031	373.1958618164062	914.7759399414062	-193.1149139404297	101.8578033447266	1127.93798828125	-150.5460510253907	166.622314453125	1143.718994140625	-158.3924102783203	106.2445297241211	1110.341918945312	304.7800598144531	62.85355758666989	1083.440673828125	258.2069091796874	-128.6069030761719	1273.040405273438	47.20595169067374	266.3014221191406	1349.257202148438	179.4180145263671	281.4949340820312	1333.122924804688	48.56376647949214	201.7758636474609	1487.064697265625	173.783706665039	213.8636016845703	1485.879028320312	26.72180175781243	41.1665916442871	1336.169677734375	78.10765075683585	
936	7.791666666666667	-13.19694805145267	962.285888671875	226.1681365966796	3.762719631195053	904.063720703125	122.1406326293945	-210.6858520507812	683.448974609375	-32.82336807250984	-188.6292266845703	731.1835327148438	-140.3706665039063	-307.8606262207031	311.0173034667969	-44.72900390625006	-329.5507507324219	304.0776062011719	-132.1312561035157	-157.3869323730469	172.105712890625	-104.7380905151367	-388.0602416992188	309.3868408203125	-93.04518127441412	-269.6224975585938	548.9813232421875	167.6674652099609	-14.27941894531252	472.6630249023438	196.3068542480468	-208.597885131836	563.526611328125	210.2398986816406	-182.1386260986328	566.8432006835938	123.0003662109374	-281.5621948242188	1229.352172851562	150.1656799316405	-287.7198486328125	1208.282470703125	-66.93302917480479	-440.5237121582031	1309.7763671875	96.55339813232408	-440.5059204101562	1297.290405273438	-16.58696174621595	-179.6678771972656	1508.0380859375	38.48318862915028	60.44642639160156	1470.139526367188	77.41913604736321	61.75885009765622	1415.054443359375	217.0860290527343	98.23941040039062	1448.711669921875	-45.02141952514656	317.3852844238281	931.0916137695312	-105.2148895263672	277.5452575683594	887.8674926757812	-155.9179229736328	320.3477478027343	939.731201171875	254.5860900878906	281.5620422363281	898.1520385742188	303.65185546875	369.6325073242187	922.7884521484375	343.6537780761719	373.2897338867188	914.7799682617188	-192.9985961914062	102.1802825927735	1128.124389648438	-149.9471740722657	166.9835510253907	1143.899536132812	-157.6359405517578	106.2227172851562	1110.233154296875	305.0548706054687	62.82612228393552	1083.2998046875	258.4519653320312	-128.6104888916016	1273.166381835938	47.29420852661124	266.3861083984375	1349.126831054688	179.8960418701171	281.5929260253906	1333.18896484375	49.08186721801754	201.8236236572265	1486.865966796875	174.411880493164	213.9072723388672	1485.930786132812	27.44912338256829	41.31406784057616	1335.971801757812	78.29882049560538	
937	7.8	-14.18067359924319	959.4132080078125	227.3323974609374	4.231748104095444	901.34912109375	123.5568237304687	-207.0176239013672	687.8868408203125	-34.00924682617195	-183.4514770507812	734.8441162109375	-141.546112060547	-317.9052734375	320.1970825195312	-44.40309906005865	-340.0263671875	313.9136352539062	-131.8295440673829	-171.0515594482422	178.1300811767578	-105.247299194336	-398.3093872070312	320.8348083496094	-92.02719116210943	-257.0511779785156	536.9650268554688	169.2970733642578	-0.6627966761589292	466.8114318847656	197.3695678710937	-196.4844970703125	553.124267578125	211.7923126220703	-170.3932800292969	557.4154052734375	124.6242370605468	-281.3589477539062	1229.589721679688	150.2621765136718	-288.0538330078125	1208.721435546875	-66.88407897949229	-440.1965942382812	1309.946166992188	96.86382293701158	-440.7761840820312	1297.57080078125	-16.24261283874525	-179.5027008056641	1508.164794921875	39.19479370117176	60.54730606079101	1470.005126953125	77.73684692382805	61.58135604858396	1414.9140625	217.0611114501952	98.42964935302734	1448.791625976562	-44.66039276123054	317.4892883300781	931.087890625	-105.1003570556641	277.6218872070312	887.9343872070312	-155.81494140625	320.2732849121093	939.7067260742188	254.7433929443359	281.5301818847656	898.0889892578125	303.7843627929688	369.6448974609374	922.7070922851562	343.7558288574219	373.3471069335938	914.7772827148438	-192.9113159179688	102.4484786987305	1128.290893554688	-149.4815521240235	167.3264923095703	1144.0830078125	-156.95556640625	106.09716796875	1110.125	305.2590026855468	62.70438003540036	1083.1796875	258.7082214355468	-128.7057952880859	1273.216918945312	47.50675582885733	266.4080810546875	1348.936157226562	180.2662048339843	281.6678771972656	1333.16552734375	49.49573135375972	201.7031555175781	1486.65185546875	175.0690917968749	213.8994750976562	1485.921630859375	28.00885009765618	41.40937805175781	1335.633056640625	78.39858245849601	
